<svg xmlns="http://www.w3.org/2000/svg" viewBox="0 0 128 128" role="img" aria-label="DS monogram">
  <rect width="128" height="128" rx="20" fill="#183153"/>
  <path d="M34 31h24c18 0 29 10 29 25 0 14-11 24-29 24H46v17H34V31zm12 11v27h12c11 0 17-5 17-14s-6-13-17-13H46z" fill="#f8fafc"/>
  <path d="M95 94c-6 4-14 6-23 6-17 0-29-8-33-21h13c4 7 11 10 20 10 7 0 13-2 17-5 4-3 6-7 6-12 0-6-3-10-10-12-3-1-8-2-16-4-9-2-16-5-20-9-4-4-6-9-6-15 0-7 3-13 9-18 6-4 13-7 23-7 15 0 26 7 31 19H83c-4-5-10-8-18-8-6 0-11 1-15 4-4 3-6 6-6 11 0 4 2 8 5 10 3 2 9 4 18 6 12 3 20 6 25 10 5 4 8 10 8 18 0 7-3 13-9 17z" fill="#dbeafe" opacity=".9"/>
</svg>